<?xml version="1.0" encoding="utf-8"?>
<!-- Generator: Adobe Illustrator 16.0.0, SVG Export Plug-In . SVG Version: 6.00 Build 0)  -->
<!DOCTYPE svg PUBLIC "-//W3C//DTD SVG 1.1//EN" "http://www.w3.org/Graphics/SVG/1.1/DTD/svg11.dtd">
<svg version="1.1" id="Layer_1" xmlns="http://www.w3.org/2000/svg" xmlns:xlink="http://www.w3.org/1999/xlink" x="0px" y="0px"
	 width="406.573px" height="479.507px" viewBox="38.194 -81.752 406.573 479.507"
	 enable-background="new 38.194 -81.752 406.573 479.507" xml:space="preserve">
<g>
	<rect x="165.017" y="-786.079" fill="#BCFFFF" width="500" height="500"/>
	
		<linearGradient id="SVGID_1_" gradientUnits="userSpaceOnUse" x1="174.416" y1="1012.6138" x2="654.0913" y2="1012.6138" gradientTransform="matrix(1 0 0 -1 0 479.1611)">
		<stop  offset="0" style="stop-color:#00A7B9"/>
		<stop  offset="1" style="stop-color:#00E7B7"/>
	</linearGradient>
	<circle fill="url(#SVGID_1_)" cx="414.253" cy="-533.453" r="239.838"/>
	<path fill="#BCFFFF" d="M39.268-373.972c0,0,150.475,24.626,228.048-290.342c0,0,58.881,216.833,77.572,261.694
		c0,0,24.303,5.607,43.93-0.936l52.338-161.689c0,0-48.959,289.911,163.801,207.744l32.471-16.472
		c0,0-161.689,71.356-171.035-123.979c0,0-2.805-113.09,57.945-224.31c0,0-135.52,200.01-155.146,271.04l-88.717-305.16
		c0,0-22.133,28.528-27.926,30.389C252.546-725.991,209.369-409.162,39.268-373.972z"/>
	<path fill="#BCFFFF" d="M487.089-547.155c0,0-32.744,234.328,163.686,142.38C650.773-404.775,493.482-331.715,487.089-547.155z"/>
</g>
<circle display="none" fill="#000066" cx="1599.543" cy="-286.079" r="499.489"/>
<rect x="-2997.747" y="-167.722" fill="#D5F4F1" width="1380.137" height="1656.166"/>
<linearGradient id="SVGID_2_" gradientUnits="userSpaceOnUse" x1="-2584.002" y1="240.8384" x2="-2104.3247" y2="240.8384" gradientTransform="matrix(1 0 0 -1 0 479.1611)">
	<stop  offset="0" style="stop-color:#00B1B7"/>
	<stop  offset="1" style="stop-color:#008FB7"/>
</linearGradient>
<circle fill="url(#SVGID_2_)" cx="-2344.164" cy="238.323" r="239.838"/>
<path fill="#D5F4F1" d="M-2719.749,411.585c0,0,152.991,25.039,231.86-295.196c0,0,59.866,220.458,78.87,266.069
	c0,0,24.707,5.701,44.662-0.952l53.214-164.392c0,0-49.778,294.759,166.538,211.217l33.014-16.746
	c0,0-164.393,72.549-173.895-126.054c0,0-2.85-114.979,58.916-228.059c0,0-137.788,203.355-157.742,275.571l-90.2-310.261
	c0,0-22.503,29.005-28.393,30.897C-2502.905,53.682-2546.804,375.808-2719.749,411.585z"/>
<path fill="#D5F4F1" d="M-2261.926,238.923c0,0-32.744,234.328,163.684,142.38C-2098.243,381.304-2255.536,454.364-2261.926,238.923
	z"/>
<text transform="matrix(1 0 0 1 1409.0874 -161.4565)" fill="#1D317B" font-family="'MermaidSwashCaps-Bold'" font-size="456.0551">M</text>
<text transform="matrix(1 0 0 1 1751.0874 -167.7222)" fill="#1D317B" font-family="'Formata-Regular'" font-size="230.8854">C</text>
<text transform="matrix(1 0 0 1 1884.0874 -167.7222)" fill="#1D317B" font-family="'Formata-Regular'" font-size="230.8854">C</text>
<path fill="none" stroke="#C3D600" stroke-miterlimit="10" d="M-1979.467,147.001c0,0,0,73.496,62.997,76.496
	s125.463-35.769,158.796-177.103c0,0,14.999-66,16.999-78.667s9.333,134.001,66.666,149.334"/>
<rect x="38.194" y="266.248" fill="#1D317B" width="406.573" height="131.507"/>
<path fill="none" stroke="#FFFFFF" stroke-width="24.7166" stroke-miterlimit="10" d="M22.268,348.959
	c0,0,62.069,15.288,99.639-40.165c0,0,56.431,99.453,125.128,0c4.203,7.584,53.97,94.119,133.97,0c0,0,45.086,62.687,105.333,44.201
	"/>
<path fill="#00B1B7" d="M38.194,227.14l0,118.772c0,0,67.281-0.264,83.712-41.816s20.491,134.43,125.128,0
	c0,0,79.303,98.595,133.97,0c0,0,52.192,64.147,63.763,51.52V227.14H38.194z"/>
<rect x="27.67" y="212.914" fill="#FFFFFF" width="432.667" height="35.333"/>
<text transform="matrix(1 0 0 1 38.1948 227.1396)"><tspan x="0" y="0" fill="#1D317B" font-family="'Formata-Bold'" font-size="190.0088" letter-spacing="-2">M</tspan><tspan x="176.136" y="0" fill="#1D317B" font-family="'Formata-Italic'" font-size="178.3344" letter-spacing="-4">C</tspan><tspan x="283.315" y="0" fill="#1D317B" font-family="'Formata-Italic'" font-size="178.3344" letter-spacing="-1">C</tspan></text>
</svg>
