<?xml version="1.0" encoding="utf-8"?>
<!-- Generator: Adobe Illustrator 16.0.0, SVG Export Plug-In . SVG Version: 6.00 Build 0)  -->
<!DOCTYPE svg PUBLIC "-//W3C//DTD SVG 1.1//EN" "http://www.w3.org/Graphics/SVG/1.1/DTD/svg11.dtd">
<svg version="1.1" id="Layer_1" xmlns="http://www.w3.org/2000/svg" xmlns:xlink="http://www.w3.org/1999/xlink" x="0px" y="0px"
	 width="1126.563px" height="479.507px" viewBox="-0.777 0 1126.563 479.507" enable-background="new -0.777 0 1126.563 479.507"
	 xml:space="preserve">
<circle display="none" fill="#000066" cx="1599.542" cy="-286.079" r="499.489"/>
<rect x="-0.777" y="348" fill="#1D317B" width="406.573" height="131.508"/>
<path fill="none" stroke="#FFFFFF" stroke-width="24.7166" stroke-miterlimit="10" d="M-16.703,430.71
	c0,0,62.069,15.289,99.639-40.164c0,0,56.431,99.453,125.127,0c4.203,7.584,53.971,94.119,133.971,0
	c0,0,45.086,62.687,105.332,44.201"/>
<path fill="#00B1B7" d="M-0.777,308.892v118.771c0,0,67.281-0.264,83.712-41.815c16.431-41.552,20.491,134.431,125.129,0
	c0,0,79.303,98.595,133.969,0c0,0,52.193,64.147,63.764,51.521V308.892H-0.777z"/>
<rect x="-11.301" y="294.666" fill="#FFFFFF" width="432.667" height="35.334"/>
<text transform="matrix(1 0 0 1 -0.7759 308.8911)" fill="#1D317B" font-family="'Formata-Bold'" font-size="190.0088" letter-spacing="-1">M</text>
<text transform="matrix(1 0 0 1 175.3604 308.8911)" fill="#1D317B" font-family="'Formata-Italic'" font-size="178.3344" letter-spacing="-3">C</text>
<text transform="matrix(1 0 0 1 282.5386 308.8911)" fill="#1D317B" font-family="'Formata-Italic'" font-size="178.3344">C</text>
<text transform="matrix(1 0 0 1 424.7856 264.2622)" fill="#1D317B" font-family="'Verdana-Bold'" font-size="112.7888" letter-spacing="-5">Maeverly</text>
<text transform="matrix(1 0 0 1 424.7856 370.0688)" fill="#1D317B" font-family="'Verdana-Bold'" font-size="112.7888" letter-spacing="-5">Community</text>
<text transform="matrix(1 0 0 1 431.1479 477.5073)" fill="#1D317B" font-family="'Verdana-Bold'" font-size="112.7888" letter-spacing="-5">Centre</text>
<line fill="none" stroke="#FFFFFF" stroke-width="4" stroke-miterlimit="10" x1="405.796" y1="322.254" x2="405.796" y2="486.254"/>
<line fill="none" stroke="#FFFFFF" stroke-width="4" stroke-miterlimit="10" x1="-1.777" y1="318.92" x2="-1.777" y2="482.92"/>
</svg>
